<?xml version="1.0" standalone="no"?>
 <!DOCTYPE svg PUBLIC "-//W3C//DTD SVG 1.1//EN" 
 "http://www.w3.org/Graphics/SVG/1.1/DTD/svg11.dtd"> 
<svg xmlns="http://www.w3.org/2000/svg" version="1.1" 
    width="20cm" height="10.2006cm" viewBox="0 0 78740 40160 ">
<title>SVG Picture created as simulacao1.sch.svg date 2018/08/26 19:43:27 </title>
  <desc>Picture generated by Eeschema-SVG </desc>
<g style="fill:#000000; fill-opacity:1;stroke:#000000; stroke-opacity:1;
stroke-linecap:round; stroke-linejoin:round; "
 transform="translate(0 0) scale(1 1)">
</g>
<g style="fill:#000000; fill-opacity:0.0; 
stroke:#000000; stroke-width:-10; stroke-opacity:1; 
stroke-linecap:round; stroke-linejoin:round;">
</g>
<g style="fill:#840000; fill-opacity:0.0; 
stroke:#840000; stroke-width:-10; stroke-opacity:1; 
stroke-linecap:round; stroke-linejoin:round;">
</g>
<g style="fill:#840000; fill-opacity:0.0; 
stroke:#840000; stroke-width:100; stroke-opacity:1; 
stroke-linecap:round; stroke-linejoin:round;">
</g>
<g style="fill:#840000; fill-opacity:0.0; 
stroke:#840000; stroke-width:60; stroke-opacity:1; 
stroke-linecap:round; stroke-linejoin:round;">
<rect x="31500" y="22840" width="42520" height="12600" rx="0" />
</g>
<g style="fill:#840000; fill-opacity:0.0; 
stroke:#840000; stroke-width:100; stroke-opacity:1; 
stroke-linecap:round; stroke-linejoin:round;">
</g>
<g style="fill:#840000; fill-opacity:0.0; 
stroke:#840000; stroke-width:60; stroke-opacity:1; 
stroke-linecap:round; stroke-linejoin:round;">
<rect x="3940" y="3940" width="70860" height="32280" rx="0" />
</g>
<g style="fill:#840000; fill-opacity:0.0; 
stroke:#840000; stroke-width:100; stroke-opacity:1; 
stroke-linecap:round; stroke-linejoin:round;">
</g>
<g style="fill:#840000; fill-opacity:0.0; 
stroke:#840000; stroke-width:60; stroke-opacity:1; 
stroke-linecap:round; stroke-linejoin:round;">
<rect x="4720" y="4720" width="69300" height="30720" rx="0" />
</g>
<g style="fill:#840000; fill-opacity:0.0; 
stroke:#840000; stroke-width:100; stroke-opacity:1; 
stroke-linecap:round; stroke-linejoin:round;">
</g>
<g style="fill:#840000; fill-opacity:0.0; 
stroke:#840000; stroke-width:60; stroke-opacity:1; 
stroke-linecap:round; stroke-linejoin:round;">
<path d="M23620 4720
L23620 3940
" />
</g>
<g style="fill:#840000; fill-opacity:0.0; 
stroke:#840000; stroke-width:100; stroke-opacity:1; 
stroke-linecap:round; stroke-linejoin:round;">
</g>
<g style="fill:#840000; fill-opacity:0.0; 
stroke:#840000; stroke-width:60; stroke-opacity:1; 
stroke-linecap:round; stroke-linejoin:round;">
<path d="M43310 4720
L43310 3940
" />
</g>
<g style="fill:#840000; fill-opacity:0.0; 
stroke:#840000; stroke-width:100; stroke-opacity:1; 
stroke-linecap:round; stroke-linejoin:round;">
</g>
<g style="fill:#840000; fill-opacity:0.0; 
stroke:#840000; stroke-width:60; stroke-opacity:1; 
stroke-linecap:round; stroke-linejoin:round;">
<path d="M62990 4720
L62990 3940
" />
</g>
<g style="fill:#840000; fill-opacity:0.0; 
stroke:#840000; stroke-width:100; stroke-opacity:1; 
stroke-linecap:round; stroke-linejoin:round;">
</g>
<g style="fill:#840000; fill-opacity:0.0; 
stroke:#840000; stroke-width:60; stroke-opacity:1; 
stroke-linecap:round; stroke-linejoin:round;">
<path d="M14170 4560
L13880 4560
" />
<path d="M14020 4560
L14020 4050
L13970 4120
L13930 4170
L13880 4190
" />
</g>
<g style="fill:#840000; fill-opacity:0.0; 
stroke:#840000; stroke-width:100; stroke-opacity:1; 
stroke-linecap:round; stroke-linejoin:round;">
</g>
<g style="fill:#840000; fill-opacity:0.0; 
stroke:#840000; stroke-width:60; stroke-opacity:1; 
stroke-linecap:round; stroke-linejoin:round;">
<path d="M33560 4090
L33580 4070
L33630 4050
L33750 4050
L33800 4070
L33820 4090
L33850 4140
L33850 4190
L33820 4260
L33530 4560
L33850 4560
" />
</g>
<g style="fill:#840000; fill-opacity:0.0; 
stroke:#840000; stroke-width:100; stroke-opacity:1; 
stroke-linecap:round; stroke-linejoin:round;">
</g>
<g style="fill:#840000; fill-opacity:0.0; 
stroke:#840000; stroke-width:60; stroke-opacity:1; 
stroke-linecap:round; stroke-linejoin:round;">
<path d="M53220 4050
L53540 4050
L53370 4240
L53440 4240
L53490 4260
L53510 4290
L53540 4340
L53540 4460
L53510 4510
L53490 4530
L53440 4560
L53300 4560
L53250 4530
L53220 4510
" />
</g>
<g style="fill:#840000; fill-opacity:0.0; 
stroke:#840000; stroke-width:100; stroke-opacity:1; 
stroke-linecap:round; stroke-linejoin:round;">
</g>
<g style="fill:#840000; fill-opacity:0.0; 
stroke:#840000; stroke-width:60; stroke-opacity:1; 
stroke-linecap:round; stroke-linejoin:round;">
<path d="M73170 4220
L73170 4560
" />
<path d="M73050 4020
L72930 4390
L73240 4390
" />
</g>
<g style="fill:#840000; fill-opacity:0.0; 
stroke:#840000; stroke-width:100; stroke-opacity:1; 
stroke-linecap:round; stroke-linejoin:round;">
</g>
<g style="fill:#840000; fill-opacity:0.0; 
stroke:#840000; stroke-width:60; stroke-opacity:1; 
stroke-linecap:round; stroke-linejoin:round;">
<path d="M23620 35440
L23620 36220
" />
</g>
<g style="fill:#840000; fill-opacity:0.0; 
stroke:#840000; stroke-width:100; stroke-opacity:1; 
stroke-linecap:round; stroke-linejoin:round;">
</g>
<g style="fill:#840000; fill-opacity:0.0; 
stroke:#840000; stroke-width:60; stroke-opacity:1; 
stroke-linecap:round; stroke-linejoin:round;">
<path d="M43310 35440
L43310 36220
" />
</g>
<g style="fill:#840000; fill-opacity:0.0; 
stroke:#840000; stroke-width:100; stroke-opacity:1; 
stroke-linecap:round; stroke-linejoin:round;">
</g>
<g style="fill:#840000; fill-opacity:0.0; 
stroke:#840000; stroke-width:60; stroke-opacity:1; 
stroke-linecap:round; stroke-linejoin:round;">
<path d="M62990 35440
L62990 36220
" />
</g>
<g style="fill:#840000; fill-opacity:0.0; 
stroke:#840000; stroke-width:100; stroke-opacity:1; 
stroke-linecap:round; stroke-linejoin:round;">
</g>
<g style="fill:#840000; fill-opacity:0.0; 
stroke:#840000; stroke-width:60; stroke-opacity:1; 
stroke-linecap:round; stroke-linejoin:round;">
<path d="M14170 36060
L13880 36060
" />
<path d="M14020 36060
L14020 35550
L13970 35620
L13930 35670
L13880 35690
" />
</g>
<g style="fill:#840000; fill-opacity:0.0; 
stroke:#840000; stroke-width:100; stroke-opacity:1; 
stroke-linecap:round; stroke-linejoin:round;">
</g>
<g style="fill:#840000; fill-opacity:0.0; 
stroke:#840000; stroke-width:60; stroke-opacity:1; 
stroke-linecap:round; stroke-linejoin:round;">
<path d="M33560 35590
L33580 35570
L33630 35550
L33750 35550
L33800 35570
L33820 35590
L33850 35640
L33850 35690
L33820 35760
L33530 36060
L33850 36060
" />
</g>
<g style="fill:#840000; fill-opacity:0.0; 
stroke:#840000; stroke-width:100; stroke-opacity:1; 
stroke-linecap:round; stroke-linejoin:round;">
</g>
<g style="fill:#840000; fill-opacity:0.0; 
stroke:#840000; stroke-width:60; stroke-opacity:1; 
stroke-linecap:round; stroke-linejoin:round;">
<path d="M53220 35550
L53540 35550
L53370 35740
L53440 35740
L53490 35760
L53510 35790
L53540 35840
L53540 35960
L53510 36010
L53490 36030
L53440 36060
L53300 36060
L53250 36030
L53220 36010
" />
</g>
<g style="fill:#840000; fill-opacity:0.0; 
stroke:#840000; stroke-width:100; stroke-opacity:1; 
stroke-linecap:round; stroke-linejoin:round;">
</g>
<g style="fill:#840000; fill-opacity:0.0; 
stroke:#840000; stroke-width:60; stroke-opacity:1; 
stroke-linecap:round; stroke-linejoin:round;">
<path d="M73170 35720
L73170 36060
" />
<path d="M73050 35520
L72930 35890
L73240 35890
" />
</g>
<g style="fill:#840000; fill-opacity:0.0; 
stroke:#840000; stroke-width:100; stroke-opacity:1; 
stroke-linecap:round; stroke-linejoin:round;">
</g>
<g style="fill:#840000; fill-opacity:0.0; 
stroke:#840000; stroke-width:60; stroke-opacity:1; 
stroke-linecap:round; stroke-linejoin:round;">
<path d="M3940 23620
L4720 23620
" />
</g>
<g style="fill:#840000; fill-opacity:0.0; 
stroke:#840000; stroke-width:100; stroke-opacity:1; 
stroke-linecap:round; stroke-linejoin:round;">
</g>
<g style="fill:#840000; fill-opacity:0.0; 
stroke:#840000; stroke-width:60; stroke-opacity:1; 
stroke-linecap:round; stroke-linejoin:round;">
<path d="M4210 13860
L4450 13860
" />
<path d="M4160 14010
L4330 13500
L4500 14010
" />
</g>
<g style="fill:#840000; fill-opacity:0.0; 
stroke:#840000; stroke-width:100; stroke-opacity:1; 
stroke-linecap:round; stroke-linejoin:round;">
</g>
<g style="fill:#840000; fill-opacity:0.0; 
stroke:#840000; stroke-width:60; stroke-opacity:1; 
stroke-linecap:round; stroke-linejoin:round;">
<path d="M4370 33420
L4440 33440
L4470 33470
L4490 33520
L4490 33590
L4470 33640
L4440 33660
L4400 33690
L4200 33690
L4200 33180
L4370 33180
L4420 33200
L4440 33220
L4470 33270
L4470 33320
L4440 33370
L4420 33390
L4370 33420
L4200 33420
" />
</g>
<g style="fill:#840000; fill-opacity:0.0; 
stroke:#840000; stroke-width:100; stroke-opacity:1; 
stroke-linecap:round; stroke-linejoin:round;">
</g>
<g style="fill:#840000; fill-opacity:0.0; 
stroke:#840000; stroke-width:60; stroke-opacity:1; 
stroke-linecap:round; stroke-linejoin:round;">
<path d="M74800 23620
L74020 23620
" />
</g>
<g style="fill:#840000; fill-opacity:0.0; 
stroke:#840000; stroke-width:100; stroke-opacity:1; 
stroke-linecap:round; stroke-linejoin:round;">
</g>
<g style="fill:#840000; fill-opacity:0.0; 
stroke:#840000; stroke-width:60; stroke-opacity:1; 
stroke-linecap:round; stroke-linejoin:round;">
<path d="M74290 13860
L74530 13860
" />
<path d="M74240 14010
L74410 13500
L74580 14010
" />
</g>
<g style="fill:#840000; fill-opacity:0.0; 
stroke:#840000; stroke-width:100; stroke-opacity:1; 
stroke-linecap:round; stroke-linejoin:round;">
</g>
<g style="fill:#840000; fill-opacity:0.0; 
stroke:#840000; stroke-width:60; stroke-opacity:1; 
stroke-linecap:round; stroke-linejoin:round;">
<path d="M74450 33420
L74520 33440
L74550 33470
L74570 33520
L74570 33590
L74550 33640
L74520 33660
L74480 33690
L74280 33690
L74280 33180
L74450 33180
L74500 33200
L74520 33220
L74550 33270
L74550 33320
L74520 33370
L74500 33390
L74450 33420
L74280 33420
" />
</g>
<g style="fill:#840000; fill-opacity:0.0; 
stroke:#840000; stroke-width:100; stroke-opacity:1; 
stroke-linecap:round; stroke-linejoin:round;">
</g>
<g style="fill:#840000; fill-opacity:0.0; 
stroke:#840000; stroke-width:60; stroke-opacity:1; 
stroke-linecap:round; stroke-linejoin:round;">
<path d="M40690 33770
L40690 33180
L40830 33180
L40920 33210
L40970 33270
L41000 33320
L41030 33430
L41030 33520
L41000 33630
L40970 33690
L40920 33740
L40830 33770
L40690 33770
" />
<path d="M41530 33770
L41530 33460
L41510 33410
L41450 33380
L41340 33380
L41280 33410
" />
<path d="M41530 33740
L41480 33770
L41340 33770
L41280 33740
L41250 33690
L41250 33630
L41280 33580
L41340 33550
L41480 33550
L41530 33520
" />
<path d="M41730 33380
L41950 33380
" />
<path d="M41810 33180
L41810 33690
L41840 33740
L41890 33770
L41950 33770
" />
<path d="M42380 33740
L42320 33770
L42210 33770
L42150 33740
L42120 33690
L42120 33460
L42150 33410
L42210 33380
L42320 33380
L42380 33410
L42400 33460
L42400 33520
L42120 33580
" />
<path d="M42660 33720
L42690 33740
L42660 33770
L42630 33740
L42660 33720
L42660 33770
" />
<path d="M42660 33410
L42690 33430
L42660 33460
L42630 33430
L42660 33410
L42660 33460
" />
<path d="M43360 33240
L43390 33210
L43450 33180
L43590 33180
L43640 33210
L43670 33240
L43700 33290
L43700 33350
L43670 33430
L43330 33770
L43700 33770
" />
<path d="M44060 33180
L44120 33180
L44180 33210
L44200 33240
L44230 33290
L44260 33410
L44260 33550
L44230 33660
L44200 33720
L44180 33740
L44120 33770
L44060 33770
L44010 33740
L43980 33720
L43950 33660
L43920 33550
L43920 33410
L43950 33290
L43980 33240
L44010 33210
L44060 33180
" />
<path d="M44820 33770
L44480 33770
" />
<path d="M44650 33770
L44650 33180
L44590 33270
L44540 33320
L44480 33350
" />
<path d="M45150 33430
L45100 33410
L45070 33380
L45040 33320
L45040 33290
L45070 33240
L45100 33210
L45150 33180
L45270 33180
L45320 33210
L45350 33240
L45380 33290
L45380 33320
L45350 33380
L45320 33410
L45270 33430
L45150 33430
L45100 33460
L45070 33490
L45040 33550
L45040 33660
L45070 33720
L45100 33740
L45150 33770
L45270 33770
L45320 33740
L45350 33720
L45380 33660
L45380 33550
L45350 33490
L45320 33460
L45270 33430
" />
<path d="M45630 33550
L46080 33550
" />
<path d="M46470 33180
L46530 33180
L46590 33210
L46610 33240
L46640 33290
L46670 33410
L46670 33550
L46640 33660
L46610 33720
L46590 33740
L46530 33770
L46470 33770
L46420 33740
L46390 33720
L46360 33660
L46330 33550
L46330 33410
L46360 33290
L46390 33240
L46420 33210
L46470 33180
" />
<path d="M47000 33430
L46950 33410
L46920 33380
L46890 33320
L46890 33290
L46920 33240
L46950 33210
L47000 33180
L47120 33180
L47170 33210
L47200 33240
L47230 33290
L47230 33320
L47200 33380
L47170 33410
L47120 33430
L47000 33430
L46950 33460
L46920 33490
L46890 33550
L46890 33660
L46920 33720
L46950 33740
L47000 33770
L47120 33770
L47170 33740
L47200 33720
L47230 33660
L47230 33550
L47200 33490
L47170 33460
L47120 33430
" />
<path d="M47480 33550
L47930 33550
" />
<path d="M48180 33240
L48210 33210
L48270 33180
L48410 33180
L48460 33210
L48490 33240
L48520 33290
L48520 33350
L48490 33430
L48150 33770
L48520 33770
" />
<path d="M49020 33180
L48910 33180
L48850 33210
L48830 33240
L48770 33320
L48740 33430
L48740 33660
L48770 33720
L48800 33740
L48850 33770
L48970 33770
L49020 33740
L49050 33720
L49080 33660
L49080 33520
L49050 33460
L49020 33430
L48970 33410
L48850 33410
L48800 33430
L48770 33460
L48740 33520
" />
</g>
<g style="fill:#840000; fill-opacity:0.0; 
stroke:#840000; stroke-width:100; stroke-opacity:1; 
stroke-linecap:round; stroke-linejoin:round;">
</g>
<g style="fill:#840000; fill-opacity:0.0; 
stroke:#840000; stroke-width:60; stroke-opacity:1; 
stroke-linecap:round; stroke-linejoin:round;">
<path d="M31500 34060
L74020 34060
" />
</g>
<g style="fill:#840000; fill-opacity:0.0; 
stroke:#840000; stroke-width:100; stroke-opacity:1; 
stroke-linecap:round; stroke-linejoin:round;">
</g>
<g style="fill:#840000; fill-opacity:0.0; 
stroke:#840000; stroke-width:60; stroke-opacity:1; 
stroke-linecap:round; stroke-linejoin:round;">
<path d="M32030 34870
L32030 34280
" />
<path d="M32370 34870
L32110 34530
" />
<path d="M32370 34280
L32030 34620
" />
<path d="M32620 34870
L32620 34480
" />
<path d="M32620 34280
L32590 34310
L32620 34340
L32650 34310
L32620 34280
L32620 34340
" />
<path d="M33240 34820
L33210 34840
L33130 34870
L33070 34870
L32980 34840
L32930 34790
L32900 34730
L32870 34620
L32870 34530
L32900 34420
L32930 34370
L32980 34310
L33070 34280
L33130 34280
L33210 34310
L33240 34340
" />
<path d="M33740 34870
L33740 34560
L33720 34510
L33660 34480
L33550 34480
L33490 34510
" />
<path d="M33740 34840
L33690 34870
L33550 34870
L33490 34840
L33460 34790
L33460 34730
L33490 34680
L33550 34650
L33690 34650
L33740 34620
" />
<path d="M34270 34870
L34270 34280
" />
<path d="M34270 34840
L34220 34870
L34100 34870
L34050 34840
L34020 34820
L33990 34760
L33990 34590
L34020 34530
L34050 34510
L34100 34480
L34220 34480
L34270 34510
" />
<path d="M35000 34560
L35200 34560
" />
<path d="M35280 34870
L35000 34870
L35000 34280
L35280 34280
" />
<path d="M35530 34820
L35560 34840
L35530 34870
L35500 34840
L35530 34820
L35530 34870
" />
<path d="M35810 34870
L35810 34280
L35950 34280
L36040 34310
L36090 34370
L36120 34420
L36150 34530
L36150 34620
L36120 34730
L36090 34790
L36040 34840
L35950 34870
L35810 34870
" />
<path d="M36400 34820
L36430 34840
L36400 34870
L36370 34840
L36400 34820
L36400 34870
" />
<path d="M36650 34700
L36930 34700
" />
<path d="M36600 34870
L36790 34280
L36990 34870
" />
<path d="M37190 34820
L37220 34840
L37190 34870
L37160 34840
L37190 34820
L37190 34870
" />
<path d="M38370 34870
L38370 34280
" />
<path d="M38430 34650
L38600 34870
" />
<path d="M38600 34480
L38370 34700
" />
<path d="M38850 34870
L38850 34480
" />
<path d="M38850 34280
L38820 34310
L38850 34340
L38880 34310
L38850 34280
L38850 34340
" />
<path d="M39380 34840
L39330 34870
L39210 34870
L39160 34840
L39130 34820
L39100 34760
L39100 34590
L39130 34530
L39160 34510
L39210 34480
L39330 34480
L39380 34510
" />
<path d="M39890 34870
L39890 34560
L39870 34510
L39810 34480
L39700 34480
L39640 34510
" />
<path d="M39890 34840
L39840 34870
L39700 34870
L39640 34840
L39610 34790
L39610 34730
L39640 34680
L39700 34650
L39840 34650
L39890 34620
" />
<path d="M40420 34870
L40420 34280
" />
<path d="M40420 34840
L40370 34870
L40250 34870
L40200 34840
L40170 34820
L40140 34760
L40140 34590
L40170 34530
L40200 34510
L40250 34480
L40370 34480
L40420 34510
" />
<path d="M41400 34480
L41400 34870
" />
<path d="M41260 34250
L41120 34680
L41490 34680
" />
<path d="M41710 34820
L41740 34840
L41710 34870
L41680 34840
L41710 34820
L41710 34870
" />
<path d="M42100 34280
L42160 34280
L42220 34310
L42240 34340
L42270 34390
L42300 34510
L42300 34650
L42270 34760
L42240 34820
L42220 34840
L42160 34870
L42100 34870
L42050 34840
L42020 34820
L41990 34760
L41960 34650
L41960 34510
L41990 34390
L42020 34340
L42050 34310
L42100 34280
" />
<path d="M42550 34820
L42580 34840
L42550 34870
L42520 34840
L42550 34820
L42550 34870
" />
<path d="M42770 34280
L43170 34280
L42910 34870
" />
</g>
<g style="fill:#840000; fill-opacity:0.0; 
stroke:#840000; stroke-width:100; stroke-opacity:1; 
stroke-linecap:round; stroke-linejoin:round;">
</g>
<g style="fill:#840000; fill-opacity:0.0; 
stroke:#840000; stroke-width:60; stroke-opacity:1; 
stroke-linecap:round; stroke-linejoin:round;">
<path d="M31500 32880
L74020 32880
" />
</g>
<g style="fill:#840000; fill-opacity:0.0; 
stroke:#840000; stroke-width:100; stroke-opacity:1; 
stroke-linecap:round; stroke-linejoin:round;">
</g>
<g style="fill:#840000; fill-opacity:0.0; 
stroke:#840000; stroke-width:120; stroke-opacity:1; 
stroke-linecap:round; stroke-linejoin:round;">
<path d="M65830 33770
L65630 33490
" />
<path d="M65490 33770
L65490 33180
L65720 33180
L65770 33210
L65800 33240
L65830 33290
L65830 33380
L65800 33430
L65770 33460
L65720 33490
L65490 33490
" />
<path d="M66310 33740
L66250 33770
L66140 33770
L66080 33740
L66050 33690
L66050 33460
L66080 33410
L66140 33380
L66250 33380
L66310 33410
L66330 33460
L66330 33520
L66050 33580
" />
<path d="M66530 33380
L66670 33770
L66820 33380
" />
<path d="M67040 33720
L67070 33740
L67040 33770
L67010 33740
L67040 33720
L67040 33770
" />
<path d="M67040 33410
L67070 33430
L67040 33460
L67010 33430
L67040 33410
L67040 33460
" />
<path d="M67690 33180
L67880 33770
L68080 33180
" />
<path d="M68590 33770
L68250 33770
" />
<path d="M68420 33770
L68420 33180
L68360 33270
L68310 33320
L68250 33350
" />
<path d="M68840 33720
L68870 33740
L68840 33770
L68810 33740
L68840 33720
L68840 33770
" />
<path d="M69230 33180
L69290 33180
L69350 33210
L69370 33240
L69400 33290
L69430 33410
L69430 33550
L69400 33660
L69370 33720
L69350 33740
L69290 33770
L69230 33770
L69180 33740
L69150 33720
L69120 33660
L69090 33550
L69090 33410
L69120 33290
L69150 33240
L69180 33210
L69230 33180
" />
</g>
<g style="fill:#840000; fill-opacity:0.0; 
stroke:#840000; stroke-width:100; stroke-opacity:1; 
stroke-linecap:round; stroke-linejoin:round;">
</g>
<g style="fill:#840000; fill-opacity:0.0; 
stroke:#840000; stroke-width:60; stroke-opacity:1; 
stroke-linecap:round; stroke-linejoin:round;">
<path d="M32000 33740
L32090 33770
L32230 33770
L32280 33740
L32310 33720
L32340 33660
L32340 33600
L32310 33550
L32280 33520
L32230 33490
L32110 33460
L32060 33430
L32030 33410
L32000 33350
L32000 33290
L32030 33240
L32060 33210
L32110 33180
L32260 33180
L32340 33210
" />
<path d="M32590 33770
L32590 33380
" />
<path d="M32590 33180
L32560 33210
L32590 33240
L32620 33210
L32590 33180
L32590 33240
" />
<path d="M32810 33380
L33120 33380
L32810 33770
L33120 33770
" />
<path d="M33580 33740
L33520 33770
L33410 33770
L33350 33740
L33320 33690
L33320 33460
L33350 33410
L33410 33380
L33520 33380
L33580 33410
L33600 33460
L33600 33520
L33320 33580
" />
<path d="M33860 33720
L33890 33740
L33860 33770
L33830 33740
L33860 33720
L33860 33770
" />
<path d="M33860 33410
L33890 33430
L33860 33460
L33830 33430
L33860 33410
L33860 33460
" />
<path d="M34590 33180
L34590 33660
L34620 33720
L34650 33740
L34700 33770
L34820 33770
L34870 33740
L34900 33720
L34930 33660
L34930 33180
" />
<path d="M35180 33740
L35240 33770
L35350 33770
L35410 33740
L35440 33690
L35440 33660
L35410 33600
L35350 33580
L35270 33580
L35210 33550
L35180 33490
L35180 33460
L35210 33410
L35270 33380
L35350 33380
L35410 33410
" />
<path d="M35920 33740
L35860 33770
L35750 33770
L35690 33740
L35660 33690
L35660 33460
L35690 33410
L35750 33380
L35860 33380
L35920 33410
L35940 33460
L35940 33520
L35660 33580
" />
<path d="M36200 33770
L36200 33380
" />
<path d="M36200 33490
L36230 33430
L36260 33410
L36310 33380
L36370 33380
" />
</g>
<g style="fill:#840000; fill-opacity:0.0; 
stroke:#840000; stroke-width:100; stroke-opacity:1; 
stroke-linecap:round; stroke-linejoin:round;">
</g>
<g style="fill:#840000; fill-opacity:0.0; 
stroke:#840000; stroke-width:60; stroke-opacity:1; 
stroke-linecap:round; stroke-linejoin:round;">
<path d="M65490 34870
L65490 34280
" />
<path d="M66020 34870
L66020 34280
" />
<path d="M66020 34840
L65970 34870
L65850 34870
L65800 34840
L65770 34820
L65740 34760
L65740 34590
L65770 34530
L65800 34510
L65850 34480
L65970 34480
L66020 34510
" />
<path d="M66300 34820
L66330 34840
L66300 34870
L66270 34840
L66300 34820
L66300 34870
" />
<path d="M66300 34510
L66330 34530
L66300 34560
L66270 34530
L66300 34510
L66300 34560
" />
<path d="M67340 34870
L67000 34870
" />
<path d="M67170 34870
L67170 34280
L67110 34370
L67060 34420
L67000 34450
" />
<path d="M68010 34250
L67510 35010
" />
<path d="M68520 34870
L68180 34870
" />
<path d="M68350 34870
L68350 34280
L68290 34370
L68240 34420
L68180 34450
" />
</g>
<g style="fill:#840000; fill-opacity:0.0; 
stroke:#840000; stroke-width:100; stroke-opacity:1; 
stroke-linecap:round; stroke-linejoin:round;">
</g>
<g style="fill:#840000; fill-opacity:0.0; 
stroke:#840000; stroke-width:60; stroke-opacity:1; 
stroke-linecap:round; stroke-linejoin:round;">
<path d="M31500 31300
L74020 31300
" />
</g>
<g style="fill:#840000; fill-opacity:0.0; 
stroke:#840000; stroke-width:100; stroke-opacity:1; 
stroke-linecap:round; stroke-linejoin:round;">
</g>
<g style="fill:#840000; fill-opacity:0.0; 
stroke:#840000; stroke-width:160; stroke-opacity:1; 
stroke-linecap:round; stroke-linejoin:round;">
<path d="M32070 31570
L32520 31570
" />
<path d="M32200 32360
L32290 31570
" />
<path d="M32690 32360
L32750 31840
" />
<path d="M32780 31570
L32740 31610
L32770 31650
L32820 31610
L32780 31570
L32770 31650
" />
<path d="M33020 31840
L33320 31840
" />
<path d="M33160 31570
L33080 32250
L33110 32320
L33180 32360
L33260 32360
" />
<path d="M33630 32360
L33560 32320
L33530 32250
L33610 31570
" />
<path d="M34230 32320
L34150 32360
L34000 32360
L33930 32320
L33900 32250
L33940 31950
L33990 31870
L34060 31840
L34210 31840
L34290 31870
L34320 31950
L34310 32020
L33920 32100
" />
<path d="M34610 32290
L34650 32320
L34610 32360
L34570 32320
L34610 32290
L34610 32360
" />
<path d="M34670 31870
L34700 31910
L34660 31950
L34620 31910
L34670 31870
L34660 31950
" />
<path d="M35550 32320
L35660 32360
L35850 32360
L35930 32320
L35960 32290
L36010 32210
L36020 32140
L35990 32060
L35970 32020
L35890 31990
L35750 31950
L35680 31910
L35650 31870
L35620 31800
L35630 31720
L35670 31650
L35720 31610
L35790 31570
L35980 31570
L36090 31610
" />
<path d="M36340 32360
L36400 31840
" />
<path d="M36430 31570
L36390 31610
L36420 31650
L36470 31610
L36430 31570
L36420 31650
" />
<path d="M36720 32360
L36780 31840
" />
<path d="M36770 31910
L36820 31870
L36890 31840
L37000 31840
L37080 31870
L37110 31950
L37060 32360
" />
<path d="M37110 31950
L37150 31870
L37230 31840
L37340 31840
L37420 31870
L37450 31950
L37400 32360
" />
<path d="M38170 31840
L38110 32360
" />
<path d="M37830 31840
L37780 32250
L37810 32320
L37880 32360
L37990 32360
L38070 32320
L38110 32290
" />
<path d="M38590 32360
L38520 32320
L38490 32250
L38570 31570
" />
<path d="M39230 32360
L39280 31950
L39250 31870
L39170 31840
L39020 31840
L38950 31870
" />
<path d="M39230 32320
L39150 32360
L38960 32360
L38890 32320
L38860 32250
L38870 32170
L38920 32100
L38990 32060
L39180 32060
L39270 32020
" />
<path d="M39940 32320
L39860 32360
L39710 32360
L39640 32320
L39600 32290
L39570 32210
L39600 31990
L39650 31910
L39700 31870
L39770 31840
L39920 31840
L40000 31870
" />
<path d="M40620 32360
L40670 31950
L40640 31870
L40560 31840
L40410 31840
L40340 31870
" />
<path d="M40620 32320
L40540 32360
L40350 32360
L40280 32320
L40250 32250
L40260 32170
L40310 32100
L40380 32060
L40570 32060
L40660 32020
" />
<path d="M41100 32360
L41030 32320
L40990 32290
L40960 32210
L40990 31990
L41040 31910
L41090 31870
L41160 31840
L41270 31840
L41350 31870
L41380 31910
L41400 31990
L41370 32210
L41330 32290
L41290 32320
L41210 32360
L41100 32360
" />
<path d="M42610 31950
L42350 31950
" />
<path d="M42300 32360
L42390 31570
L42760 31570
" />
<path d="M43090 32360
L43020 32320
L42980 32290
L42950 32210
L42980 31990
L43030 31910
L43080 31870
L43150 31840
L43260 31840
L43340 31870
L43370 31910
L43390 31990
L43360 32210
L43320 32290
L43280 32320
L43200 32360
L43090 32360
" />
<path d="M43750 31840
L43690 32360
" />
<path d="M43740 31910
L43790 31870
L43860 31840
L43970 31840
L44050 31870
L44080 31950
L44030 32360
" />
<path d="M44350 31840
L44650 31840
" />
<path d="M44490 31570
L44410 32250
L44440 32320
L44510 32360
L44590 32360
" />
<path d="M45150 32320
L45070 32360
L44920 32360
L44850 32320
L44820 32250
L44860 31950
L44910 31870
L44980 31840
L45130 31840
L45210 31870
L45240 31950
L45230 32020
L44840 32100
" />
<path d="M46580 32290
L46540 32320
L46430 32360
L46350 32360
L46240 32320
L46180 32250
L46150 32170
L46130 32020
L46140 31910
L46200 31760
L46250 31690
L46330 31610
L46440 31570
L46520 31570
L46630 31610
L46660 31650
" />
<path d="M47370 32290
L47330 32320
L47220 32360
L47140 32360
L47030 32320
L46970 32250
L46940 32170
L46920 32020
L46930 31910
L46990 31760
L47040 31690
L47120 31610
L47230 31570
L47310 31570
L47420 31610
L47450 31650
" />
</g>
<g style="fill:#840000; fill-opacity:0.0; 
stroke:#840000; stroke-width:100; stroke-opacity:1; 
stroke-linecap:round; stroke-linejoin:round;">
</g>
<g style="fill:#840000; fill-opacity:0.0; 
stroke:#840000; stroke-width:60; stroke-opacity:1; 
stroke-linecap:round; stroke-linejoin:round;">
<path d="M32230 30540
L32030 30540
" />
<path d="M32030 30850
L32030 30260
L32310 30260
" />
<path d="M32540 30850
L32540 30460
" />
<path d="M32540 30260
L32510 30290
L32540 30320
L32570 30290
L32540 30260
L32540 30320
" />
<path d="M32900 30850
L32850 30820
L32820 30770
L32820 30260
" />
<path d="M33360 30820
L33300 30850
L33190 30850
L33130 30820
L33100 30770
L33100 30540
L33130 30490
L33190 30460
L33300 30460
L33360 30490
L33380 30540
L33380 30600
L33100 30660
" />
<path d="M33640 30800
L33670 30820
L33640 30850
L33610 30820
L33640 30800
L33640 30850
" />
<path d="M33640 30490
L33670 30510
L33640 30540
L33610 30510
L33640 30490
L33640 30540
" />
<path d="M34340 30820
L34400 30850
L34510 30850
L34570 30820
L34600 30770
L34600 30740
L34570 30680
L34510 30660
L34430 30660
L34370 30630
L34340 30570
L34340 30540
L34370 30490
L34430 30460
L34510 30460
L34570 30490
" />
<path d="M34850 30850
L34850 30460
" />
<path d="M34850 30260
L34820 30290
L34850 30320
L34880 30290
L34850 30260
L34850 30320
" />
<path d="M35130 30850
L35130 30460
" />
<path d="M35130 30510
L35160 30490
L35210 30460
L35300 30460
L35360 30490
L35380 30540
L35380 30850
" />
<path d="M35380 30540
L35410 30490
L35470 30460
L35550 30460
L35610 30490
L35640 30540
L35640 30850
" />
<path d="M36170 30460
L36170 30850
" />
<path d="M35920 30460
L35920 30770
L35950 30820
L36000 30850
L36090 30850
L36150 30820
L36170 30800
" />
<path d="M36530 30850
L36480 30820
L36450 30770
L36450 30260
" />
<path d="M37010 30850
L37010 30540
L36990 30490
L36930 30460
L36820 30460
L36760 30490
" />
<path d="M37010 30820
L36960 30850
L36820 30850
L36760 30820
L36730 30770
L36730 30710
L36760 30660
L36820 30630
L36960 30630
L37010 30600
" />
<path d="M37540 30820
L37490 30850
L37370 30850
L37320 30820
L37290 30800
L37260 30740
L37260 30570
L37290 30510
L37320 30490
L37370 30460
L37490 30460
L37540 30490
" />
<path d="M38050 30850
L38050 30540
L38030 30490
L37970 30460
L37860 30460
L37800 30490
" />
<path d="M38050 30820
L38000 30850
L37860 30850
L37800 30820
L37770 30770
L37770 30710
L37800 30660
L37860 30630
L38000 30630
L38050 30600
" />
<path d="M38410 30850
L38360 30820
L38330 30800
L38300 30740
L38300 30570
L38330 30510
L38360 30490
L38410 30460
L38500 30460
L38560 30490
L38580 30510
L38610 30570
L38610 30740
L38580 30800
L38560 30820
L38500 30850
L38410 30850
" />
<path d="M39170 30850
L38830 30850
" />
<path d="M39000 30850
L39000 30260
L38940 30350
L38890 30400
L38830 30430
" />
<path d="M39420 30800
L39450 30820
L39420 30850
L39390 30820
L39420 30800
L39420 30850
" />
<path d="M39670 30820
L39730 30850
L39840 30850
L39900 30820
L39930 30770
L39930 30740
L39900 30680
L39840 30660
L39760 30660
L39700 30630
L39670 30570
L39670 30540
L39700 30490
L39760 30460
L39840 30460
L39900 30490
" />
<path d="M40430 30820
L40380 30850
L40260 30850
L40210 30820
L40180 30800
L40150 30740
L40150 30570
L40180 30510
L40210 30490
L40260 30460
L40380 30460
L40430 30490
" />
<path d="M40690 30850
L40690 30260
" />
<path d="M40940 30850
L40940 30540
L40920 30490
L40860 30460
L40770 30460
L40720 30490
L40690 30510
" />
</g>
<g style="fill:#840000; fill-opacity:0.0; 
stroke:#840000; stroke-width:100; stroke-opacity:1; 
stroke-linecap:round; stroke-linejoin:round;">
</g>
<g style="fill:#840000; fill-opacity:0.0; 
stroke:#840000; stroke-width:60; stroke-opacity:1; 
stroke-linecap:round; stroke-linejoin:round;">
<path d="M31500 28940
L74020 28940
" />
</g>
<g style="fill:#840000; fill-opacity:0.0; 
stroke:#840000; stroke-width:100; stroke-opacity:1; 
stroke-linecap:round; stroke-linejoin:round;">
</g>
<g style="fill:#840000; fill-opacity:0.0; 
stroke:#840000; stroke-width:60; stroke-opacity:1; 
stroke-linecap:round; stroke-linejoin:round;">
<path d="M32000 29760
L32090 29790
L32230 29790
L32280 29760
L32310 29740
L32340 29680
L32340 29620
L32310 29570
L32280 29540
L32230 29510
L32110 29480
L32060 29450
L32030 29430
L32000 29370
L32000 29310
L32030 29260
L32060 29230
L32110 29200
L32260 29200
L32340 29230
" />
<path d="M32590 29790
L32590 29200
" />
<path d="M32840 29790
L32840 29480
L32820 29430
L32760 29400
L32670 29400
L32620 29430
L32590 29450
" />
<path d="M33350 29760
L33290 29790
L33180 29790
L33120 29760
L33090 29710
L33090 29480
L33120 29430
L33180 29400
L33290 29400
L33350 29430
L33370 29480
L33370 29540
L33090 29600
" />
<path d="M33860 29760
L33800 29790
L33690 29790
L33630 29760
L33600 29710
L33600 29480
L33630 29430
L33690 29400
L33800 29400
L33860 29430
L33880 29480
L33880 29540
L33600 29600
" />
<path d="M34060 29400
L34280 29400
" />
<path d="M34140 29200
L34140 29710
L34170 29760
L34220 29790
L34280 29790
" />
<path d="M34480 29740
L34510 29760
L34480 29790
L34450 29760
L34480 29740
L34480 29790
" />
<path d="M34480 29430
L34510 29450
L34480 29480
L34450 29450
L34480 29430
L34480 29480
" />
<path d="M35630 29170
L35130 29930
" />
</g>
<g style="fill:#840000; fill-opacity:0.0; 
stroke:#840000; stroke-width:100; stroke-opacity:1; 
stroke-linecap:round; stroke-linejoin:round;">
</g>
<g style="fill:#840000; fill-opacity:0.0; 
stroke:#840000; stroke-width:60; stroke-opacity:1; 
stroke-linecap:round; stroke-linejoin:round;">
<path d="M39370 32880
L39370 34060
" />
</g>
<g style="fill:#840000; fill-opacity:0.0; 
stroke:#840000; stroke-width:100; stroke-opacity:1; 
stroke-linecap:round; stroke-linejoin:round;">
</g>
<g style="fill:#840000; fill-opacity:0.0; 
stroke:#840000; stroke-width:60; stroke-opacity:1; 
stroke-linecap:round; stroke-linejoin:round;">
<path d="M64570 32880
L64570 35440
" />
</g>
<g style="fill:#840000; fill-opacity:0.0; 
stroke:#840000; stroke-width:0; stroke-opacity:1; 
stroke-linecap:round; stroke-linejoin:round;">
</g>
<g style="fill:#840000; fill-opacity:0.0; 
stroke:#840000; stroke-width:200; stroke-opacity:1; 
stroke-linecap:round; stroke-linejoin:round;">
<path d="M58800.3 16001 A1280 1280 0.0 0 0 57199.7 16001 " />
<polyline fill="none;"
points="57200,15200
58800,15200
" /> 
</g>
<g style="fill:#840000; fill-opacity:0.0; 
stroke:#840000; stroke-width:60; stroke-opacity:1; 
stroke-linecap:round; stroke-linejoin:round;">
<polyline fill="none;"
points="57300,14600
57700,14600
" /> 
<polyline fill="none;"
points="57500,14800
57500,14400
" /> 
<path d="M58000 15100
L58000 14000
" />
<path d="M58000 15700
L58000 17000
" />
</g>
<g style="fill:#008484; fill-opacity:0.0; 
stroke:#008484; stroke-width:60; stroke-opacity:1; 
stroke-linecap:round; stroke-linejoin:round;">
<path d="M58580 14420
L58580 14760
" />
<path d="M58460 14230
L58350 14590
L58650 14590
" />
<path d="M59060 14420
L59060 14760
" />
<path d="M58940 14230
L58830 14590
L59130 14590
" />
<path d="M59330 14760
L59330 14420
" />
<path d="M59330 14470
L59350 14450
L59400 14420
L59470 14420
L59520 14450
L59540 14490
L59540 14760
" />
<path d="M59540 14490
L59570 14450
L59610 14420
L59690 14420
L59730 14450
L59760 14490
L59760 14760
" />
<path d="M60170 14490
L60000 14490
" />
<path d="M60000 14760
L60000 14260
L60240 14260
" />
<path d="M60690 14760
L60410 14760
" />
<path d="M60550 14760
L60550 14260
L60500 14330
L60450 14380
L60410 14400
" />
<path d="M58650 16710
L58630 16730
L58560 16760
L58510 16760
L58440 16730
L58390 16680
L58370 16640
L58350 16540
L58350 16470
L58370 16380
L58390 16330
L58440 16280
L58510 16260
L58560 16260
L58630 16280
L58650 16300
" />
<path d="M58870 16760
L58870 16260
L59060 16260
L59110 16280
L59130 16300
L59150 16350
L59150 16420
L59130 16470
L59110 16490
L59060 16520
L58870 16520
" />
<path d="M59630 16760
L59350 16760
" />
<path d="M59490 16760
L59490 16260
L59440 16330
L59390 16380
L59350 16400
" />
</g>
<g style="fill:#008484; fill-opacity:0.0; 
stroke:#008484; stroke-width:0; stroke-opacity:1; 
stroke-linecap:round; stroke-linejoin:round;">
</g>
<g style="fill:#840000; fill-opacity:0.0; 
stroke:#840000; stroke-width:0; stroke-opacity:1; 
stroke-linecap:round; stroke-linejoin:round;">
</g>
<g style="fill:#840000; fill-opacity:0.0; 
stroke:#840000; stroke-width:80; stroke-opacity:1; 
stroke-linecap:round; stroke-linejoin:round;">
<polyline fill="none;"
points="52500,17000
52500,18000
" /> 
</g>
<g style="fill:#840000; fill-opacity:0.0; 
stroke:#840000; stroke-width:60; stroke-opacity:1; 
stroke-linecap:round; stroke-linejoin:round;">
<polyline fill="none;"
points="53500,17500
52500,17500
" /> 
</g>
<g style="fill:#840000; fill-opacity:0.0; 
stroke:#840000; stroke-width:80; stroke-opacity:1; 
stroke-linecap:round; stroke-linejoin:round;">
<polyline fill="none;"
points="53500,17000
53500,18000
52500,17500
53500,17000
" /> 
</g>
<g style="fill:#840000; fill-opacity:0.0; 
stroke:#840000; stroke-width:60; stroke-opacity:1; 
stroke-linecap:round; stroke-linejoin:round;">
<path d="M52500 17500
L51500 17500
" />
<path d="M53500 17500
L54500 17500
" />
</g>
<g style="fill:#008484; fill-opacity:0.0; 
stroke:#008484; stroke-width:60; stroke-opacity:1; 
stroke-linecap:round; stroke-linejoin:round;">
<path d="M52630 16760
L52630 16260
L52750 16260
L52820 16280
L52870 16330
L52890 16380
L52910 16470
L52910 16540
L52890 16640
L52870 16680
L52820 16730
L52750 16760
L52630 16760
" />
<path d="M53110 16300
L53130 16280
L53180 16260
L53300 16260
L53340 16280
L53370 16300
L53390 16350
L53390 16400
L53370 16470
L53080 16760
L53390 16760
" />
<path d="M52870 18760
L52870 18260
L52990 18260
L53060 18280
L53110 18330
L53130 18380
L53150 18470
L53150 18540
L53130 18640
L53110 18680
L53060 18730
L52990 18760
L52870 18760
" />
</g>
<g style="fill:#008484; fill-opacity:0.0; 
stroke:#008484; stroke-width:0; stroke-opacity:1; 
stroke-linecap:round; stroke-linejoin:round;">
</g>
<g style="fill:#840000; fill-opacity:0.0; 
stroke:#840000; stroke-width:0; stroke-opacity:1; 
stroke-linecap:round; stroke-linejoin:round;">
</g>
<g style="fill:#840000; fill-opacity:0.0; 
stroke:#840000; stroke-width:80; stroke-opacity:1; 
stroke-linecap:round; stroke-linejoin:round;">
<polyline fill="none;"
points="53500,13000
53500,14000
" /> 
</g>
<g style="fill:#840000; fill-opacity:0.0; 
stroke:#840000; stroke-width:60; stroke-opacity:1; 
stroke-linecap:round; stroke-linejoin:round;">
<polyline fill="none;"
points="52500,13500
53500,13500
" /> 
</g>
<g style="fill:#840000; fill-opacity:0.0; 
stroke:#840000; stroke-width:80; stroke-opacity:1; 
stroke-linecap:round; stroke-linejoin:round;">
<polyline fill="none;"
points="52500,13000
52500,14000
53500,13500
52500,13000
" /> 
</g>
<g style="fill:#840000; fill-opacity:0.0; 
stroke:#840000; stroke-width:60; stroke-opacity:1; 
stroke-linecap:round; stroke-linejoin:round;">
<path d="M53500 13500
L54500 13500
" />
<path d="M52500 13500
L51500 13500
" />
</g>
<g style="fill:#008484; fill-opacity:0.0; 
stroke:#008484; stroke-width:60; stroke-opacity:1; 
stroke-linecap:round; stroke-linejoin:round;">
<path d="M52630 12760
L52630 12260
L52750 12260
L52820 12280
L52870 12330
L52890 12380
L52910 12470
L52910 12540
L52890 12640
L52870 12680
L52820 12730
L52750 12760
L52630 12760
" />
<path d="M53390 12760
L53110 12760
" />
<path d="M53250 12760
L53250 12260
L53200 12330
L53150 12380
L53110 12400
" />
<path d="M52870 14760
L52870 14260
L52990 14260
L53060 14280
L53110 14330
L53130 14380
L53150 14470
L53150 14540
L53130 14640
L53110 14680
L53060 14730
L52990 14760
L52870 14760
" />
</g>
<g style="fill:#008484; fill-opacity:0.0; 
stroke:#008484; stroke-width:0; stroke-opacity:1; 
stroke-linecap:round; stroke-linejoin:round;">
</g>
<g style="fill:#840000; fill-opacity:0.0; 
stroke:#840000; stroke-width:0; stroke-opacity:1; 
stroke-linecap:round; stroke-linejoin:round;">
</g>
<g style="fill:#840000; fill-opacity:0.0; 
stroke:#840000; stroke-width:100; stroke-opacity:1; 
stroke-linecap:round; stroke-linejoin:round;">
<rect x="62100" y="14500" width="800" height="2000" rx="0" />
</g>
<g style="fill:#840000; fill-opacity:0.0; 
stroke:#840000; stroke-width:60; stroke-opacity:1; 
stroke-linecap:round; stroke-linejoin:round;">
<path d="M62500 14500
L62500 14000
" />
<path d="M62500 16500
L62500 17000
" />
</g>
<g style="fill:#008484; fill-opacity:0.0; 
stroke:#008484; stroke-width:60; stroke-opacity:1; 
stroke-linecap:round; stroke-linejoin:round;">
<path d="M63560 15590
L63320 15750
" />
<path d="M63560 15870
L63060 15870
L63060 15680
L63080 15630
L63100 15610
L63150 15590
L63220 15590
L63270 15610
L63290 15630
L63320 15680
L63320 15870
" />
<path d="M63560 15110
L63560 15390
" />
<path d="M63560 15250
L63060 15250
L63130 15300
L63180 15350
L63200 15390
" />
<path d="M62260 15380
L62260 15620
L62490 15640
L62470 15620
L62450 15570
L62450 15450
L62470 15410
L62490 15380
L62540 15360
L62660 15360
L62710 15380
L62730 15410
L62760 15450
L62760 15570
L62730 15620
L62710 15640
" />
</g>
<g style="fill:#008484; fill-opacity:0.0; 
stroke:#008484; stroke-width:0; stroke-opacity:1; 
stroke-linecap:round; stroke-linejoin:round;">
</g>
<g style="fill:#840000; fill-opacity:0.0; 
stroke:#840000; stroke-width:0; stroke-opacity:1; 
stroke-linecap:round; stroke-linejoin:round;">
</g>
<g style="fill:#840000; fill-opacity:0.0; 
stroke:#840000; stroke-width:60; stroke-opacity:1; 
stroke-linecap:round; stroke-linejoin:round;">
<path d="M45000 16999.1 A500 500 0.0 0 0 44500.9 16500 " />
<path d="M44500.9 17500 A500 500 0.0 0 0 45000 17000.9 " />
<path d="M45000 15999.1 A500 500 0.0 0 0 44500.9 15500 " />
<path d="M44500.9 16500 A500 500 0.0 0 0 45000 16000.9 " />
<path d="M45000 14999.1 A500 500 0.0 0 0 44500.9 14500 " />
<path d="M44500.9 15500 A500 500 0.0 0 0 45000 15000.9 " />
<path d="M45000 13999.1 A500 500 0.0 0 0 44500.9 13500 " />
<path d="M44500.9 14500 A500 500 0.0 0 0 45000 14000.9 " />
<path d="M46500.9 15500 A500 500 0.0 0 0 46000 16000.9 " />
<path d="M46000 15999.1 A500 500 0.0 0 0 46500.9 16500 " />
<path d="M46500.9 14500 A500 500 0.0 0 0 46000 15000.9 " />
<path d="M46000 14999.1 A500 500 0.0 0 0 46500.9 15500 " />
<path d="M46500.9 13500 A500 500 0.0 0 0 46000 14000.9 " />
<path d="M46000 13999.1 A500 500 0.0 0 0 46500.9 14500 " />
<path d="M46501.3 16500.1 A500 500 0.0 0 0 46010 17000.9 " />
<path d="M46010 17000.9 A500 500 0.0 0 0 46499.5 17499.9 " />
<polyline fill="none;"
points="45250,13500
45250,17500
" /> 
<polyline fill="none;"
points="45750,17500
45750,13500
" /> 
<path d="M44500 13500
L41500 13500
" />
<path d="M43140 13380
L42860 13380
" />
<path d="M43000 13380
L43000 12880
L42950 12950
L42900 13000
L42860 13020
" />
<path d="M44500 17500
L41500 17500
" />
<path d="M42860 16920
L42880 16900
L42930 16880
L43050 16880
L43090 16900
L43120 16920
L43140 16970
L43140 17020
L43120 17090
L42830 17380
L43140 17380
" />
<path d="M46500 17500
L49500 17500
" />
<path d="M47830 16880
L48140 16880
L47970 17070
L48050 17070
L48090 17090
L48120 17110
L48140 17160
L48140 17280
L48120 17330
L48090 17350
L48050 17380
L47900 17380
L47860 17350
L47830 17330
" />
<path d="M46500 15500
L49500 15500
" />
<path d="M48090 15040
L48090 15380
" />
<path d="M47970 14850
L47860 15210
L48160 15210
" />
<path d="M46500 13500
L49500 13500
" />
<path d="M48120 12880
L47880 12880
L47860 13110
L47880 13090
L47930 13070
L48050 13070
L48090 13090
L48120 13110
L48140 13160
L48140 13280
L48120 13330
L48090 13350
L48050 13380
L47930 13380
L47880 13350
L47860 13330
" />
</g>
<g style="fill:#008484; fill-opacity:0.0; 
stroke:#008484; stroke-width:60; stroke-opacity:1; 
stroke-linecap:round; stroke-linejoin:round;">
<path d="M45120 12760
L45400 12760
" />
<path d="M45260 13260
L45260 12760
" />
<path d="M45830 13260
L45550 13260
" />
<path d="M45690 13260
L45690 12760
L45640 12830
L45590 12880
L45550 12900
" />
<path d="M43420 18760
L43140 18760
" />
<path d="M43280 18760
L43280 18260
L43230 18330
L43180 18380
L43140 18400
" />
<path d="M43730 18260
L43780 18260
L43830 18280
L43850 18300
L43880 18350
L43900 18450
L43900 18570
L43880 18660
L43850 18710
L43830 18730
L43780 18760
L43730 18760
L43690 18730
L43660 18710
L43640 18660
L43620 18570
L43620 18450
L43640 18350
L43660 18300
L43690 18280
L43730 18260
" />
<path d="M44210 18260
L44260 18260
L44310 18280
L44330 18300
L44360 18350
L44380 18450
L44380 18570
L44360 18660
L44330 18710
L44310 18730
L44260 18760
L44210 18760
L44170 18730
L44140 18710
L44120 18660
L44100 18570
L44100 18450
L44120 18350
L44140 18300
L44170 18280
L44210 18260
" />
<path d="M44530 18260
L44690 18760
L44860 18260
" />
<path d="M45240 18760
L45240 18490
L45220 18450
L45170 18420
L45080 18420
L45030 18450
" />
<path d="M45240 18730
L45200 18760
L45080 18760
L45030 18730
L45010 18680
L45010 18640
L45030 18590
L45080 18570
L45200 18570
L45240 18540
" />
<path d="M45690 18730
L45650 18760
L45550 18760
L45500 18730
L45480 18710
L45460 18660
L45460 18520
L45480 18470
L45500 18450
L45550 18420
L45650 18420
L45690 18450
" />
<path d="M46310 18760
L46410 18760
L46460 18730
L46480 18710
L46530 18640
L46550 18540
L46550 18350
L46530 18300
L46500 18280
L46460 18260
L46360 18260
L46310 18280
L46290 18300
L46270 18350
L46270 18470
L46290 18520
L46310 18540
L46360 18570
L46460 18570
L46500 18540
L46530 18520
L46550 18470
" />
<path d="M46700 18260
L46860 18760
L47030 18260
" />
<path d="M47410 18760
L47410 18490
L47390 18450
L47340 18420
L47250 18420
L47200 18450
" />
<path d="M47410 18730
L47370 18760
L47250 18760
L47200 18730
L47180 18680
L47180 18640
L47200 18590
L47250 18570
L47370 18570
L47410 18540
" />
<path d="M47860 18730
L47820 18760
L47720 18760
L47670 18730
L47650 18710
L47630 18660
L47630 18520
L47650 18470
L47670 18450
L47720 18420
L47820 18420
L47860 18450
" />
</g>
<g style="fill:#008400; fill-opacity:0.0; 
stroke:#008400; stroke-width:60; stroke-opacity:1; 
stroke-linecap:round; stroke-linejoin:round;">
<path d="M54500 13500
L66000 13500
" />
<path d="M58000 13500
L58000 14000
" />
<path d="M62500 13500
L62500 14000
" />
</g>
<g style="fill:#008400; fill-opacity:0.0; 
stroke:#008400; stroke-width:0; stroke-opacity:1; 
stroke-linecap:round; stroke-linejoin:round;">
</g>
<g style="fill:#008400; fill-opacity:1.0; 
stroke:#008400; stroke-width:100; stroke-opacity:1; 
stroke-linecap:round; stroke-linejoin:round;">
<circle cx="58000" cy="13500" r="200" /> 
</g>
<g style="fill:#008400; fill-opacity:1.0; 
stroke:#008400; stroke-width:60; stroke-opacity:1; 
stroke-linecap:round; stroke-linejoin:round;">
</g>
<g style="fill:#008400; fill-opacity:0.0; 
stroke:#008400; stroke-width:60; stroke-opacity:1; 
stroke-linecap:round; stroke-linejoin:round;">
<path d="M54500 17500
L55000 17500
" />
<path d="M55000 17500
L55000 13500
" />
</g>
<g style="fill:#008400; fill-opacity:0.0; 
stroke:#008400; stroke-width:0; stroke-opacity:1; 
stroke-linecap:round; stroke-linejoin:round;">
</g>
<g style="fill:#008400; fill-opacity:1.0; 
stroke:#008400; stroke-width:100; stroke-opacity:1; 
stroke-linecap:round; stroke-linejoin:round;">
<circle cx="55000" cy="13500" r="200" /> 
</g>
<g style="fill:#008400; fill-opacity:1.0; 
stroke:#008400; stroke-width:60; stroke-opacity:1; 
stroke-linecap:round; stroke-linejoin:round;">
</g>
<g style="fill:#008400; fill-opacity:0.0; 
stroke:#008400; stroke-width:60; stroke-opacity:1; 
stroke-linecap:round; stroke-linejoin:round;">
<path d="M49500 13500
L51500 13500
" />
<path d="M49500 17500
L51500 17500
" />
<path d="M41500 13500
L41500 13500
" />
<path d="M38000 15000
L41500 15000
" />
<path d="M41500 15000
L41500 13500
" />
<path d="M38000 16000
L41500 16000
" />
<path d="M41500 16000
L41500 17500
" />
</g>
<g style="fill:#008400; fill-opacity:0.0; 
stroke:#008400; stroke-width:0; stroke-opacity:1; 
stroke-linecap:round; stroke-linejoin:round;">
</g>
<g style="fill:#840000; fill-opacity:0.0; 
stroke:#840000; stroke-width:0; stroke-opacity:1; 
stroke-linecap:round; stroke-linejoin:round;">
</g>
<g style="fill:#FFFFC2; fill-opacity:0.0; 
stroke:#FFFFC2; stroke-width:0; stroke-opacity:1; 
stroke-linecap:round; stroke-linejoin:round;">
</g>
<g style="fill:#FFFFC2; fill-opacity:0.6; 
stroke:#FFFFC2; stroke-width:0; stroke-opacity:1; 
stroke-linecap:round; stroke-linejoin:round;">
<rect x="35500" y="14500" width="1000" height="2000" rx="0" />
</g>
<g style="fill:#840000; fill-opacity:0.6; 
stroke:#840000; stroke-width:0; stroke-opacity:1; 
stroke-linecap:round; stroke-linejoin:round;">
</g>
<g style="fill:#840000; fill-opacity:0.0; 
stroke:#840000; stroke-width:100; stroke-opacity:1; 
stroke-linecap:round; stroke-linejoin:round;">
<rect x="35500" y="14500" width="1000" height="2000" rx="0" />
</g>
<g style="fill:#840000; fill-opacity:0.0; 
stroke:#840000; stroke-width:60; stroke-opacity:1; 
stroke-linecap:round; stroke-linejoin:round;">
<rect x="36000" y="15950" width="500" height="100" rx="0" />
<rect x="36000" y="14950" width="500" height="100" rx="0" />
<path d="M36500 15000
L38000 15000
" />
<path d="M37390 14880
L37110 14880
" />
<path d="M37250 14880
L37250 14380
L37200 14450
L37150 14500
L37110 14520
" />
<path d="M36500 16000
L38000 16000
" />
<path d="M37110 15420
L37130 15400
L37180 15380
L37300 15380
L37340 15400
L37370 15420
L37390 15470
L37390 15520
L37370 15590
L37080 15880
L37390 15880
" />
</g>
<g style="fill:#008484; fill-opacity:0.0; 
stroke:#008484; stroke-width:60; stroke-opacity:1; 
stroke-linecap:round; stroke-linejoin:round;">
<path d="M35830 13760
L35830 14110
L35810 14180
L35760 14230
L35690 14260
L35640 14260
" />
<path d="M36330 14260
L36050 14260
" />
<path d="M36190 14260
L36190 13760
L36140 13830
L36090 13880
L36050 13900
" />
<path d="M34120 17210
L34100 17230
L34030 17260
L33980 17260
L33910 17230
L33860 17180
L33840 17140
L33820 17040
L33820 16970
L33840 16880
L33860 16830
L33910 16780
L33980 16760
L34030 16760
L34100 16780
L34120 16800
" />
<path d="M34410 17260
L34360 17230
L34340 17210
L34320 17160
L34320 17020
L34340 16970
L34360 16950
L34410 16920
L34480 16920
L34530 16950
L34550 16970
L34580 17020
L34580 17160
L34550 17210
L34530 17230
L34480 17260
L34410 17260
" />
<path d="M34790 16920
L34790 17260
" />
<path d="M34790 16970
L34810 16950
L34860 16920
L34930 16920
L34980 16950
L35000 16990
L35000 17260
" />
<path d="M35240 16920
L35240 17260
" />
<path d="M35240 16970
L35260 16950
L35310 16920
L35380 16920
L35430 16950
L35450 16990
L35450 17260
" />
<path d="M35570 17300
L35950 17300
" />
<path d="M36160 16760
L36210 16760
L36260 16780
L36280 16800
L36310 16850
L36330 16950
L36330 17070
L36310 17160
L36280 17210
L36260 17230
L36210 17260
L36160 17260
L36120 17230
L36090 17210
L36070 17160
L36050 17070
L36050 16950
L36070 16850
L36090 16800
L36120 16780
L36160 16760
" />
<path d="M36810 17260
L36530 17260
" />
<path d="M36670 17260
L36670 16760
L36620 16830
L36570 16880
L36530 16900
" />
<path d="M36980 17260
L37240 16920
" />
<path d="M36980 16920
L37240 17260
" />
<path d="M37520 16760
L37570 16760
L37620 16780
L37640 16800
L37670 16850
L37690 16950
L37690 17070
L37670 17160
L37640 17210
L37620 17230
L37570 17260
L37520 17260
L37480 17230
L37450 17210
L37430 17160
L37410 17070
L37410 16950
L37430 16850
L37450 16800
L37480 16780
L37520 16760
" />
<path d="M37890 16800
L37910 16780
L37960 16760
L38080 16760
L38120 16780
L38150 16800
L38170 16850
L38170 16900
L38150 16970
L37860 17260
L38170 17260
" />
</g>
<g style="fill:#008484; fill-opacity:0.0; 
stroke:#008484; stroke-width:0; stroke-opacity:1; 
stroke-linecap:round; stroke-linejoin:round;">
</g>
<g style="fill:#840000; fill-opacity:0.0; 
stroke:#840000; stroke-width:0; stroke-opacity:1; 
stroke-linecap:round; stroke-linejoin:round;">
</g>
<g style="fill:#FFFFC2; fill-opacity:0.0; 
stroke:#FFFFC2; stroke-width:0; stroke-opacity:1; 
stroke-linecap:round; stroke-linejoin:round;">
</g>
<g style="fill:#FFFFC2; fill-opacity:0.6; 
stroke:#FFFFC2; stroke-width:0; stroke-opacity:1; 
stroke-linecap:round; stroke-linejoin:round;">
<rect x="67500" y="14500" width="1000" height="2000" rx="0" />
</g>
<g style="fill:#840000; fill-opacity:0.6; 
stroke:#840000; stroke-width:0; stroke-opacity:1; 
stroke-linecap:round; stroke-linejoin:round;">
</g>
<g style="fill:#840000; fill-opacity:0.0; 
stroke:#840000; stroke-width:100; stroke-opacity:1; 
stroke-linecap:round; stroke-linejoin:round;">
<rect x="67500" y="14500" width="1000" height="2000" rx="0" />
</g>
<g style="fill:#840000; fill-opacity:0.0; 
stroke:#840000; stroke-width:60; stroke-opacity:1; 
stroke-linecap:round; stroke-linejoin:round;">
<rect x="67500" y="15950" width="500" height="100" rx="0" />
<rect x="67500" y="14950" width="500" height="100" rx="0" />
<path d="M67500 15000
L66000 15000
" />
<path d="M66890 14880
L66610 14880
" />
<path d="M66750 14880
L66750 14380
L66700 14450
L66650 14500
L66610 14520
" />
<path d="M67500 16000
L66000 16000
" />
<path d="M66610 15420
L66630 15400
L66680 15380
L66800 15380
L66840 15400
L66870 15420
L66890 15470
L66890 15520
L66870 15590
L66580 15880
L66890 15880
" />
</g>
<g style="fill:#008484; fill-opacity:0.0; 
stroke:#008484; stroke-width:60; stroke-opacity:1; 
stroke-linecap:round; stroke-linejoin:round;">
<path d="M67830 13760
L67830 14110
L67810 14180
L67760 14230
L67690 14260
L67640 14260
" />
<path d="M68050 13800
L68070 13780
L68120 13760
L68240 13760
L68280 13780
L68310 13800
L68330 13850
L68330 13900
L68310 13970
L68020 14260
L68330 14260
" />
<path d="M66130 17210
L66110 17230
L66040 17260
L65990 17260
L65920 17230
L65870 17180
L65850 17140
L65830 17040
L65830 16970
L65850 16880
L65870 16830
L65920 16780
L65990 16760
L66040 16760
L66110 16780
L66130 16800
" />
<path d="M66420 17260
L66370 17230
L66350 17210
L66330 17160
L66330 17020
L66350 16970
L66370 16950
L66420 16920
L66490 16920
L66540 16950
L66560 16970
L66590 17020
L66590 17160
L66560 17210
L66540 17230
L66490 17260
L66420 17260
" />
<path d="M66800 16920
L66800 17260
" />
<path d="M66800 16970
L66820 16950
L66870 16920
L66940 16920
L66990 16950
L67010 16990
L67010 17260
" />
<path d="M67250 16920
L67250 17260
" />
<path d="M67250 16970
L67270 16950
L67320 16920
L67390 16920
L67440 16950
L67460 16990
L67460 17260
" />
<path d="M67580 17300
L67960 17300
" />
<path d="M68170 16760
L68220 16760
L68270 16780
L68290 16800
L68320 16850
L68340 16950
L68340 17070
L68320 17160
L68290 17210
L68270 17230
L68220 17260
L68170 17260
L68130 17230
L68100 17210
L68080 17160
L68060 17070
L68060 16950
L68080 16850
L68100 16800
L68130 16780
L68170 16760
" />
<path d="M68820 17260
L68540 17260
" />
<path d="M68680 17260
L68680 16760
L68630 16830
L68580 16880
L68540 16900
" />
<path d="M68990 17260
L69250 16920
" />
<path d="M68990 16920
L69250 17260
" />
<path d="M69530 16760
L69580 16760
L69630 16780
L69650 16800
L69680 16850
L69700 16950
L69700 17070
L69680 17160
L69650 17210
L69630 17230
L69580 17260
L69530 17260
L69490 17230
L69460 17210
L69440 17160
L69420 17070
L69420 16950
L69440 16850
L69460 16800
L69490 16780
L69530 16760
" />
<path d="M69900 16800
L69920 16780
L69970 16760
L70090 16760
L70130 16780
L70160 16800
L70180 16850
L70180 16900
L70160 16970
L69870 17260
L70180 17260
" />
</g>
<g style="fill:#008400; fill-opacity:0.0; 
stroke:#008400; stroke-width:60; stroke-opacity:1; 
stroke-linecap:round; stroke-linejoin:round;">
<path d="M66000 13500
L66000 15000
" />
</g>
<g style="fill:#008400; fill-opacity:0.0; 
stroke:#008400; stroke-width:0; stroke-opacity:1; 
stroke-linecap:round; stroke-linejoin:round;">
</g>
<g style="fill:#008400; fill-opacity:1.0; 
stroke:#008400; stroke-width:100; stroke-opacity:1; 
stroke-linecap:round; stroke-linejoin:round;">
<circle cx="62500" cy="13500" r="200" /> 
</g>
<g style="fill:#008400; fill-opacity:1.0; 
stroke:#008400; stroke-width:60; stroke-opacity:1; 
stroke-linecap:round; stroke-linejoin:round;">
</g>
<g style="fill:#008400; fill-opacity:0.0; 
stroke:#008400; stroke-width:60; stroke-opacity:1; 
stroke-linecap:round; stroke-linejoin:round;">
<path d="M58000 17000
L66000 17000
" />
<path d="M66000 17000
L66000 16000
" />
</g>
<g style="fill:#008400; fill-opacity:0.0; 
stroke:#008400; stroke-width:0; stroke-opacity:1; 
stroke-linecap:round; stroke-linejoin:round;">
</g>
<g style="fill:#840000; fill-opacity:0.0; 
stroke:#840000; stroke-width:0; stroke-opacity:1; 
stroke-linecap:round; stroke-linejoin:round;">
</g>
<g style="fill:#840000; fill-opacity:0.0; 
stroke:#840000; stroke-width:60; stroke-opacity:1; 
stroke-linecap:round; stroke-linejoin:round;">
<polyline fill="none;"
points="50500,15500
50500,16000
51000,16000
50500,16500
50000,16000
50500,16000
" /> 
</g>
<g style="fill:#008484; fill-opacity:0.0; 
stroke:#008484; stroke-width:60; stroke-opacity:1; 
stroke-linecap:round; stroke-linejoin:round;">
<path d="M50120 16780
L50070 16760
L50000 16760
L49930 16780
L49880 16830
L49860 16880
L49840 16970
L49840 17040
L49860 17140
L49880 17180
L49930 17230
L50000 17260
L50050 17260
L50120 17230
L50140 17210
L50140 17040
L50050 17040
" />
<path d="M50360 17260
L50360 16760
L50640 17260
L50640 16760
" />
<path d="M50880 17260
L50880 16760
L51000 16760
L51070 16780
L51120 16830
L51140 16880
L51160 16970
L51160 17040
L51140 17140
L51120 17180
L51070 17230
L51000 17260
L50880 17260
" />
</g>
<g style="fill:#008484; fill-opacity:0.0; 
stroke:#008484; stroke-width:0; stroke-opacity:1; 
stroke-linecap:round; stroke-linejoin:round;">
</g>
<g style="fill:#840000; fill-opacity:0.0; 
stroke:#840000; stroke-width:0; stroke-opacity:1; 
stroke-linecap:round; stroke-linejoin:round;">
</g>
<g style="fill:#840000; fill-opacity:0.0; 
stroke:#840000; stroke-width:60; stroke-opacity:1; 
stroke-linecap:round; stroke-linejoin:round;">
<polyline fill="none;"
points="62500,18000
62500,18500
63000,18500
62500,19000
62000,18500
62500,18500
" /> 
</g>
<g style="fill:#008484; fill-opacity:0.0; 
stroke:#008484; stroke-width:60; stroke-opacity:1; 
stroke-linecap:round; stroke-linejoin:round;">
<path d="M62120 19280
L62070 19260
L62000 19260
L61930 19280
L61880 19330
L61860 19380
L61840 19470
L61840 19540
L61860 19640
L61880 19680
L61930 19730
L62000 19760
L62050 19760
L62120 19730
L62140 19710
L62140 19540
L62050 19540
" />
<path d="M62360 19760
L62360 19260
L62640 19760
L62640 19260
" />
<path d="M62880 19760
L62880 19260
L63000 19260
L63070 19280
L63120 19330
L63140 19380
L63160 19470
L63160 19540
L63140 19640
L63120 19680
L63070 19730
L63000 19760
L62880 19760
" />
</g>
<g style="fill:#008400; fill-opacity:0.0; 
stroke:#008400; stroke-width:60; stroke-opacity:1; 
stroke-linecap:round; stroke-linejoin:round;">
<path d="M62500 17000
L62500 18000
" />
</g>
<g style="fill:#008400; fill-opacity:0.0; 
stroke:#008400; stroke-width:0; stroke-opacity:1; 
stroke-linecap:round; stroke-linejoin:round;">
</g>
<g style="fill:#008400; fill-opacity:1.0; 
stroke:#008400; stroke-width:100; stroke-opacity:1; 
stroke-linecap:round; stroke-linejoin:round;">
<circle cx="62500" cy="17000" r="200" /> 
</g>
<g style="fill:#008400; fill-opacity:1.0; 
stroke:#008400; stroke-width:60; stroke-opacity:1; 
stroke-linecap:round; stroke-linejoin:round;">
</g>
<g style="fill:#008400; fill-opacity:0.0; 
stroke:#008400; stroke-width:60; stroke-opacity:1; 
stroke-linecap:round; stroke-linejoin:round;">
<path d="M49500 15500
L50500 15500
" />
</g> 
</svg>
